#!OML:ASF F:\VICON\USERDATA\INSTALL\Justin_Nancy\Justin_Nancy.ASF
:FULLY-SPECIFIED
:DEGREES
263
root -0.204308 16.8135 37.7952 2.00131 -7.44282 -5.88063
lowerback 5.59939 1.90184 5.74399
upperback 0.270575 2.99558 3.53855
thorax -2.75895 1.43546 0.205301
lowerneck -18.0027 -2.94542 -9.8868
upperneck 18.1036 -2.24942 4.25787
head 8.80447 -1.29083 2.7887
rclavicle -4.68138e-014 -4.29375e-014
rhumerus -18.9937 1.17964 -81.4847
rradius 42.6441
rwrist -3.52957
rhand -15.1545 12.2816
rfingers 7.12502
rthumb 11.0157 -17.4094
lclavicle -4.68138e-014 -4.29375e-014
lhumerus -39.7604 3.38825 87.1967
lradius 28.3583
lwrist -8.65139
lhand -10.6475 25.6447
lfingers 7.12502
lthumb 15.36 55.0542
rfemur 14.6089 7.72435 32.7402
rtibia 13.6831
rfoot -16.1544 -3.54335
rtoes -8.95788
lfemur -35.8227 -5.53554 -9.03998
ltibia 25.2864
lfoot -8.94317 15.0927
ltoes -4.3175
264
root -0.197094 16.7808 38.0534 2.12918 -7.68805 -5.81369
lowerback 5.41715 2.00589 5.68642
upperback 0.233558 3.1171 3.53582
thorax -2.69343 1.49774 0.231952
lowerneck -17.5757 -2.86338 -9.76635
upperneck 17.8753 -2.16505 4.03576
head 8.64049 -1.26596 2.70222
rclavicle 3.67752e-014 2.62396e-014
rhumerus -18.5857 1.23787 -81.3429
rradius 43.0404
rwrist -3.53208
rhand -15.2488 12.3682
rfingers 7.12502
rthumb 10.9247 -17.3276
lclavicle 3.67752e-014 2.62396e-014
lhumerus -40.0579 4.24733 87.0713
lradius 27.5714
lwrist -9.92695
lhand -9.36903 26.5154
lfingers 7.12502
lthumb 16.5912 55.8262
rfemur 15.8042 7.60816 32.4496
rtibia 13.0822
rfoot -15.888 -3.00114
rtoes -11.0096
lfemur -36.1096 -6.69006 -8.37275
ltibia 23.7138
lfoot -9.76254 16.0349
ltoes -3.99689
265
root -0.189441 16.7536 38.3252 2.27739 -7.84652 -5.7649
lowerback 5.11855 2.07525 5.67795
upperback 0.187142 3.18602 3.52413
thorax -2.57121 1.5344 0.231001
lowerneck -17.0941 -2.8651 -9.81696
upperneck 17.6213 -2.19644 4.00223
head 8.47152 -1.28702 2.69412
rclavicle -2.70347e-014 1.59028e-015
rhumerus -18.2545 1.4392 -81.2188
rradius 43.4653
rwrist -3.84463
rhand -15.4864 12.4601
rfingers 7.12502
rthumb 10.6956 -17.2476
lclavicle -2.70347e-014 1.59028e-015
lhumerus -40.1196 4.90097 86.9767
lradius 26.4755
lwrist -11.0939
lhand -9.67257 26.6383
lfingers 7.12502
lthumb 16.2989 55.9733
rfemur 16.7066 7.46967 32.1398
rtibia 12.8632
rfoot -15.7781 -2.33755
rtoes -11.3212
lfemur -36.3529 -8.4907 -7.40468
ltibia 22.4414
lfoot -11.0578 17.5253
ltoes -2.1435
266
root -0.18528 16.7147 38.5755 2.32098 -7.99414 -5.81091
lowerback 5.42389 2.09551 5.67601
upperback 0.072591 3.24576 3.49798
thorax -2.85797 1.5559 0.185873
lowerneck -17.1105 -2.90977 -9.76369
upperneck 17.6264 -2.28545 4.07291
head 8.48238 -1.31802 2.69849
rclavicle 1.16289e-014 3.18055e-015
rhumerus -17.9964 1.40277 -81.2961
rradius 43.839
rwrist -3.8905
rhand -15.8535 12.667
rfingers 7.12502
rthumb 10.3414 -17.0587
lclavicle 1.16289e-014 3.18055e-015
lhumerus -40.2587 5.33657 86.8366
lradius 25.5881
lwrist -11.8464
lhand -10.444 26.4485
lfingers 7.12502
lthumb 15.556 55.8428
rfemur 17.6384 7.70746 32.1406
rtibia 12.6823
rfoot -15.2156 -1.70708
rtoes -11.3597
lfemur -36.4258 -9.12337 -6.93589
ltibia 21.5778
lfoot -11.5988 17.989
ltoes -5.54895
267
root -0.172144 16.6828 38.8381 2.27267 -8.02283 -5.41031
lowerback 5.59337 2.10127 5.36138
upperback -0.0522573 3.25117 3.33475
thorax -3.08984 1.55575 0.181218
lowerneck -17.039 -2.85375 -9.67398
upperneck 17.7841 -2.26697 4.19144
head 8.52103 -1.29463 2.72882
rclavicle -1.54058e-015 -4.77083e-015
rhumerus -17.8644 1.2002 -81.2938
rradius 44.1144
rwrist -3.86942
rhand -16.3102 13.1534
rfingers 7.12502
rthumb 9.90093 -16.5938
lclavicle -1.54058e-015 -4.77083e-015
lhumerus -40.7531 5.73122 86.6762
lradius 25.052
lwrist -12.7915
lhand -9.39836 26.8602
lfingers 7.12502
lthumb 16.5629 56.1734
rfemur 18.5271 7.51822 31.4951
rtibia 12.8396
rfoot -14.8597 -0.798123
rtoes -13.2082
lfemur -36.2996 -8.42018 -7.80631
ltibia 21.1189
lfoot -11.9347 16.715
ltoes -8.11105
268
root -0.161638 16.6665 39.1199 2.15963 -7.89457 -5.08305
lowerback 5.366 2.05422 5.09662
upperback -0.0515664 3.15109 3.235
thorax -2.97274 1.51231 0.241561
lowerneck -16.8401 -2.83792 -9.64822
upperneck 17.9407 -2.30111 4.31176
head 8.54169 -1.30137 2.76413
rclavicle 1.58034e-014 1.90833e-014
rhumerus -17.7549 1.08181 -81.2371
rradius 44.361
rwrist -3.79027
rhand -16.6974 13.3286
rfingers 7.12502
rthumb 9.52731 -16.436
lclavicle 1.58034e-014 1.90833e-014
lhumerus -40.9059 6.07871 86.5965
lradius 24.2667
lwrist -13.5363
lhand -8.127 27.5444
lfingers 7.12502
lthumb 17.7866 56.751
rfemur 19.1604 7.15246 30.8941
rtibia 13.4922
rfoot -14.5881 -0.13389
rtoes -14.0917
lfemur -36.0211 -7.09439 -9.03214
ltibia 21.072
lfoot -12.1425 14.3119
ltoes -4.95526
269
root -0.161266 16.6561 39.3923 2.05889 -7.79928 -5.02492
lowerback 5.19067 2.01854 4.93324
upperback -0.0204756 3.08004 3.28092
thorax -2.85516 1.48267 0.392117
lowerneck -16.498 -2.95192 -9.76426
upperneck 17.7961 -2.47154 4.35357
head 8.44716 -1.38623 2.77601
rclavicle 3.57812e-015 1.66979e-014
rhumerus -17.5596 0.974744 -81.1367
rradius 44.5064
rwrist -3.88253
rhand -16.7904 13.1175
rfingers 7.12502
rthumb 9.43762 -16.6512
lclavicle 3.57812e-015 1.66979e-014
lhumerus -40.9636 6.71876 86.4715
lradius 23.5131
lwrist -14.2209
lhand -7.4717 27.8985
lfingers 7.12502
lthumb 18.4171 57.0466
rfemur 19.4707 7.18154 30.7604
rtibia 14.2671
rfoot -13.6278 0.466179
rtoes -11.0117
lfemur -35.7622 -4.95368 -10.3531
ltibia 21.5192
lfoot -11.3563 11.2959
ltoes -2.88228
